<?xml version="1.0" encoding="utf-8"?>
<!-- Generator: Adobe Illustrator 18.1.1, SVG Export Plug-In . SVG Version: 6.00 Build 0)  -->
<svg version="1.1" id="Layer_1" xmlns="http://www.w3.org/2000/svg" xmlns:xlink="http://www.w3.org/1999/xlink" x="0px" y="0px"
	 width="18.7px" height="18.7px" viewBox="0 0 18.7 18.7" enable-background="new 0 0 18.7 18.7" xml:space="preserve">
<g>
	<path fill="#F98E23" d="M15,6.6c0,0.8-0.1,1.5-0.4,2l-4,8.5c-0.1,0.2-0.3,0.4-0.5,0.6c-0.2,0.1-0.5,0.2-0.7,0.2s-0.5-0.1-0.7-0.2
		s-0.4-0.3-0.5-0.6l-4-8.5c-0.2-0.5-0.4-1.2-0.4-2c0-1.6,0.6-2.9,1.7-4C6.4,1.5,7.8,1,9.3,1s2.9,0.6,4,1.7C14.4,3.7,15,5.1,15,6.6z
		 M11.3,8.6c0.5-0.6,0.8-1.2,0.8-2s-0.3-1.4-0.8-2c-0.6-0.6-1.2-0.8-2-0.8c-0.8,0-1.4,0.3-2,0.8s-0.8,1.2-0.8,2s0.3,1.4,0.8,2
		s1.2,0.8,2,0.8C10.1,9.4,10.8,9.2,11.3,8.6z"/>
</g>
</svg>
